<?xml version="1.0" standalone="no"?>
<!DOCTYPE svg PUBLIC "-//W3C//DTD SVG 20010904//EN"
 "http://www.w3.org/TR/2001/REC-SVG-20010904/DTD/svg10.dtd">
<svg version="1.0" xmlns="http://www.w3.org/2000/svg"
 width="513.000000pt" height="513.000000pt" viewBox="0 0 513.000000 513.000000"
 preserveAspectRatio="xMidYMid meet">
<metadata>
Created by potrace 1.14, written by Peter Selinger 2001-2017
</metadata>
<g transform="translate(0.000000,513.000000) scale(0.100000,-0.100000)"
fill="#000000" stroke="none">
<path d="M2410 5104 c-386 -33 -656 -106 -965 -258 -283 -139 -492 -292 -715
-522 -372 -384 -602 -857 -687 -1411 -23 -154 -23 -536 0 -698 39 -270 119
-528 238 -771 130 -264 295 -490 515 -704 430 -418 960 -658 1569 -710 222
-19 582 13 825 75 936 237 1671 1008 1859 1950 39 193 46 276 46 515 -1 266
-14 383 -72 615 -153 612 -527 1141 -1060 1495 -325 216 -653 340 -1063 400
-137 20 -389 33 -490 24z m484 -1813 c411 -89 746 -304 1000 -641 31 -41 56
-81 56 -88 0 -23 -110 -163 -199 -256 -332 -342 -787 -524 -1257 -503 -381 17
-737 161 -1030 416 -85 74 -195 197 -256 288 l-38 56 36 51 c108 152 234 282
373 385 229 170 477 269 786 315 17 2 120 3 230 1 159 -2 220 -7 299 -24z"/>
</g>
</svg>
